<?xml version="1.0" encoding="UTF-8"?><svg xmlns="http://www.w3.org/2000/svg" xmlns:xlink="http://www.w3.org/1999/xlink" viewBox="0 0 208.07 197.26"><defs><style>.d{fill:#fff;}.e{fill:#07519b;}.f{fill:#1062c4;}.g{clip-path:url(#c);}.h{fill:#fec4c1;}.i{fill:none;}.j{fill:#298bed;}</style><clipPath id="c"><path class="i" d="M194.82,5.4c-2.62-1.77-6.05-1.48-9.21-1.51-24.4-.27-49.18-.8-73.87-.7-28.26,.11-56.52,.1-84.78,0-6.05-.02-12.43,.04-17.66,3.07C-.42,11.9,3.14,27.68,3.05,37.13c-.14,15.54,1.05,31.05,1.4,46.58,.6,26.88-3.13,53.55-1.33,80.53,.42,6.37,1.36,13.53,6.45,17.38,3.91,2.95,9.18,3.07,14.08,3.08,33.21,.02,66.43,.03,99.64,.05,15.14,0,31.69-1.84,46.58,.8,12.57,2.22,23.2,.92,24.95-14.43,.72-6.32-.36-12.71,.02-19.06,.65-10.76,3.23-19.77,1.91-30.42-1.4-11.3-.03-23.28-.27-34.74-.39-19.18-.59-38.03,.78-57.05,.27-3.68,.59-7.37,.98-11.06,.51-4.83,.59-10.67-3.44-13.39Z"/></clipPath></defs><g id="a"/><g id="b"><g><g><g><path class="f" d="M197.28,29.85c.27-3.68,.59-7.37,.98-11.06,.51-4.83,.59-10.67-3.44-13.39-2.62-1.77-6.05-1.48-9.21-1.51-24.4-.27-49.18-.8-73.87-.7-28.26,.11-56.52,.1-84.78,0-6.05-.02-12.43,.04-17.66,3.07C-.42,11.9,3.14,27.68,3.05,37.13c-.14,15.54,1.05,31.05,1.4,46.58,.6,26.88-3.13,53.55-1.33,80.53,.43,6.37,1.36,13.53,6.45,17.38,3.91,2.95,9.18,3.07,14.08,3.08l99.64,.05c15.14,0,31.69-1.84,46.58,.8,12.57,2.22,23.2,.92,24.95-14.43,.72-6.32-.36-12.71,.02-19.06,.65-10.76,3.23-19.77,1.91-30.42-1.4-11.3-.03-23.28-.27-34.74-.39-19.18-.59-38.03,.78-57.05Z"/><path class="f" d="M7.49,173.19l-2.13,.23c-.4-3.74-.88-7.54-1.34-11.2-.93-7.29-1.88-14.83-2.23-22.31-.55-12.05-1.04-24.3-1.51-36.15v-.26C-.23,90.72-.05,77.08,.85,60.56c.43-7.95,.99-15.79,1.42-21.74,.12-1.68,.08-3.56,.04-5.54-.1-4.58-.21-9.32,1.62-13.07l1.92,.94c-1.6,3.28-1.5,7.76-1.4,12.08,.05,2.04,.09,3.96-.04,5.75-.44,5.93-.99,13.76-1.42,21.7-.89,16.45-1.07,30.03-.57,42.73v.26c.48,11.85,.96,24.09,1.52,36.14,.34,7.4,1.29,14.89,2.21,22.14,.47,3.68,.95,7.48,1.35,11.25Z"/><path class="f" d="M187.71,4.04l-.45,2.09c-7.11-1.55-13.39-2.58-19.19-3.16-8.53-.85-17.27-.84-25.72-.83l-73.31,.08c-13.29,.01-27.51,.15-41.47,1.04-4.5,.29-9.58,.84-13.02,3.88l-1.41-1.6c3.94-3.48,9.45-4.1,14.3-4.41C41.44,.23,55.7,.09,69.03,.08L142.34,0c8.51,0,17.3-.02,25.94,.84,5.89,.59,12.25,1.63,19.44,3.19Z"/><path class="d" d="M38.15,17.37c0,.59-.48,1.07-1.07,1.07-4.95,0-9.1,.18-13.07,.57-1.18,.12-2.41,.24-3.42,.71-1.86,.87-2.78,2.78-3.17,3.85-.63,1.75-.8,3.69-.97,5.57-.18,2.12-.38,4.24-.58,6.36-.72,7.73-1.47,15.72-1.52,23.57,0,.59-.49,1.07-1.08,1.06-.59,0-1.06-.48-1.06-1.07h0c.05-7.95,.8-15.99,1.53-23.77,.2-2.12,.4-4.23,.58-6.35,.18-2.02,.36-4.1,1.09-6.11,.86-2.37,2.38-4.17,4.27-5.05,1.35-.63,2.82-.78,4.12-.91,4.04-.4,8.26-.58,13.28-.58,.59,0,1.07,.48,1.07,1.07Z"/><path class="d" d="M42.96,21.15v.05c-.03,.59-.53,1.05-1.12,1.02-4.33-.19-8.7-.01-13,.54-.59,.08-1.12-.34-1.2-.93-.08-.59,.34-1.12,.92-1.2,4.42-.57,8.91-.75,13.36-.56,.57,.03,1.02,.5,1.02,1.07Z"/><path class="d" d="M17.32,111.29s0,.03,0,.04c-.56,14.4-.78,29.01-.65,43.42h0c0,.6-.47,1.07-1.06,1.08-.59,0-1.07-.47-1.08-1.06-.13-14.44,.09-29.09,.65-43.53,.02-.59,.52-1.05,1.11-1.03,.58,.02,1.03,.5,1.03,1.07Z"/><path class="d" d="M17.41,170.11c0,.5-.36,.95-.87,1.05-.58,.11-1.14-.27-1.25-.85-.38-1.99-.47-4.01-.27-6.02,.06-.59,.58-1.02,1.17-.96s1.02,.57,.96,1.17c-.18,1.81-.09,3.63,.25,5.41,.01,.07,.02,.14,.02,.2Z"/><path class="d" d="M88.4,176.51c0,.59-.48,1.07-1.07,1.07H40.64c-.59,0-1.07-.48-1.07-1.07s.48-1.07,1.07-1.07h46.69c.59,0,1.07,.48,1.07,1.07Z"/><path class="d" d="M123.34,179.94c0,.58-.46,1.05-1.04,1.07l-49.9,1.34c-.59,.02-1.08-.45-1.1-1.04-.02-.58,.45-1.08,1.04-1.1l49.9-1.34c.59-.02,1.08,.45,1.1,1.04v.03Z"/><path class="d" d="M184.82,122.34v.05c-.66,14.64-1.04,29.49-1.13,44.14,0,.59-.48,1.07-1.08,1.06-.59,0-1.03-.44-1.06-1.08,.09-14.68,.47-29.56,1.13-44.23,.03-.59,.53-1.05,1.12-1.02,.57,.03,1.02,.5,1.02,1.07Z"/><path class="d" d="M190.42,133.38c0,.58-.46,1.05-1.04,1.07-.59,.01-1.08-.45-1.1-1.04l-.25-9.63c-.03-.55,.45-1.08,1.04-1.1,.59-.01,1.08,.45,1.1,1.04l.25,9.63v.03Z"/><path class="d" d="M188.19,79.46v30.65c0,.59-.48,1.07-1.07,1.07s-1.07-.48-1.07-1.07v-30.65c0-.59,.48-1.07,1.07-1.07s1.07,.48,1.07,1.07Z"/><path class="d" d="M122.03,45.93c0-1.72-2.67-1.72-2.67,0s2.67,1.72,2.67,0h0Z"/><path class="d" d="M114.92,32.74c0-1.72-2.67-1.72-2.67,0s2.67,1.72,2.67,0h0Z"/><path class="d" d="M61.61,24.06c0-1.72-2.67-1.72-2.67,0s2.67,1.72,2.67,0h0Z"/><path class="d" d="M97.31,41.25c0-1.72-2.67-1.72-2.67,0s2.67,1.72,2.67,0h0Z"/><path class="d" d="M18.81,78.85c0-1.72-2.67-1.72-2.67,0s2.67,1.72,2.67,0h0Z"/><path class="d" d="M27.01,167.95c0-1.72-2.67-1.72-2.67,0s2.67,1.72,2.67,0h0Z"/><path class="d" d="M68.99,158.14c0-1.72-2.67-1.72-2.67,0s2.67,1.72,2.67,0h0Z"/><path class="d" d="M29.7,154.67c0-1.72-2.67-1.72-2.67,0s2.67,1.72,2.67,0h0Z"/><path class="d" d="M154.24,49.43c0-1.72-2.67-1.72-2.67,0s2.67,1.72,2.67,0h0Z"/><path class="d" d="M134.29,180.43c0-1.72-2.67-1.72-2.67,0s2.67,1.72,2.67,0h0Z"/><path class="d" d="M141.77,167.95c0-1.72-2.67-1.72-2.67,0s2.67,1.72,2.67,0h0Z"/><path class="d" d="M173.85,167.59c0-1.72-2.67-1.72-2.67,0s2.67,1.72,2.67,0h0Z"/><path class="d" d="M162.07,147.61c0-1.72-2.67-1.72-2.67,0s2.67,1.72,2.67,0h0Z"/><path class="d" d="M43.67,57.53c1.28-1.15-.51-3.14-1.79-1.99-1.28,1.15,.51,3.14,1.79,1.99h0Z"/><path class="d" d="M169.93,94.79c0-1.72-2.67-1.72-2.67,0s2.67,1.72,2.67,0h0Z"/><path class="d" d="M176.7,111.73c0-1.72-2.67-1.72-2.67,0s2.67,1.72,2.67,0h0Z"/><path class="d" d="M27.92,35.03c1.28-1.15-.51-3.14-1.79-1.99-1.28,1.15,.51,3.14,1.79,1.99h0Z"/><path class="d" d="M75.93,19.24c0-1.72-2.67-1.72-2.67,0s2.67,1.72,2.67,0h0Z"/><path class="d" d="M155.59,13.5c0,.58-.47,1.06-1.06,1.07-17.37,.21-35.01,.24-52.42,.09-.59,0-1.06-.48-1.06-1.07h0c0-.6,.49-1.07,1.08-1.07,17.39,.15,35.02,.12,52.37-.09,.59,0,1.07,.47,1.08,1.06h0Z"/><path class="d" d="M94.64,14.16c0,.59-.48,1.07-1.07,1.07h-10.69c-.59,0-1.07-.48-1.07-1.07s.48-1.07,1.07-1.07h10.69c.59,0,1.07,.48,1.07,1.07Z"/></g><g class="g"><g><circle class="h" cx="89.35" cy="51.11" r="13.49" transform="translate(-9.97 78.15) rotate(-45)"/><g><path class="d" d="M96.34,190.16l2.11-38.41L28.96,127.75l30.7-42.39,5.61-18.9s23.46-24.47,46.16-24.47h27.49l63.53-14.39,1.04,54.76,3.35,109.04-110.51-1.24Z"/><path class="j" d="M208.07,192.6l-112.97-1.27,2.12-38.75-70.15-24.23,31.52-43.51,5.64-18.98,.2-.21c.97-1.01,24.07-24.83,47.01-24.83h27.36l64.81-14.68,1.07,56.2,3.39,110.26Zm-110.49-3.6l108.05,1.22-3.31-107.82-1.02-53.32-62.24,14.1h-27.63c-20.86,0-42.82,21.59-45.11,23.91l-5.59,18.81-.12,.16-29.77,41.1,68.82,23.78-2.09,38.06Z"/></g><g><path class="h" d="M127.73,74.15c-7.27,4.04-22.31,4.7-26.35-2.57-4.04-7.27,4.45-19.71,11.71-23.75,7.27-4.04,16.44-1.43,20.48,5.84,4.04,7.27,1.43,16.44-5.84,20.48Z"/><path class="j" d="M114.8,78.31c-6.13,0-12.03-1.81-14.45-6.16-4.36-7.83,4.25-20.94,12.17-25.35,7.82-4.35,17.73-1.53,22.08,6.3,2.11,3.79,2.61,8.17,1.43,12.35-1.19,4.17-3.93,7.63-7.72,9.74-3.53,1.96-8.59,3.13-13.51,3.13Zm5.6-31.21c-2.33,0-4.63,.59-6.73,1.76-6.78,3.77-14.85,15.68-11.26,22.14,3.59,6.46,17.97,5.89,24.75,2.12h0c3.24-1.8,5.58-4.76,6.6-8.32,1.02-3.57,.58-7.31-1.22-10.55-1.8-3.24-4.76-5.58-8.32-6.6-1.26-.36-2.55-.54-3.83-.54Z"/></g><path class="j" d="M119.74,71.56c-3.9,2.17-12.15,2.19-14.54-2.11-2.39-4.3,1.98-11.3,5.88-13.47,3.9-2.17,9-.44,11.39,3.86,2.39,4.3,1.17,9.55-2.73,11.71Z"/><g><path class="e" d="M159.62,123.44c-4.51,7.9-10.91,17.35-18.29,23.18-14.54,11.48-43.06,5.23-43.06,5.23l-3.64,43s33.92-23.92,52.11-38.71c10.44-8.48,15.39-20.92,17.73-30.81,.7-2.95-3.35-4.53-4.86-1.89Z"/><path class="j" d="M93.25,197.26l3.96-46.86,1.31,.29c.28,.06,28.14,6,42.07-5,7.46-5.89,13.9-15.67,18-22.84h0c.97-1.69,2.91-2.37,4.73-1.66,1.8,.71,2.75,2.52,2.3,4.4-2.24,9.44-7.2,22.57-18.13,31.45-18.02,14.64-51.84,38.52-52.18,38.76l-2.07,1.46Zm6.09-44.01l-3.31,39.16c7.64-5.43,34.6-24.7,49.98-37.19,10.42-8.47,15.17-21.08,17.33-30.16,.21-.89-.31-1.45-.87-1.67-.2-.08-1.22-.41-1.81,.63-4.2,7.35-10.83,17.4-18.58,23.52-6.25,4.94-15.61,7.35-27.73,7.17-6.81-.1-12.52-1-14.99-1.46Z"/></g><path class="h" d="M97.24,86.04c-.6,6.94-7.08,12.05-14.49,11.41s-12.92-6.78-12.33-13.72c.6-6.94,6.7-7.58,14.1-6.94,7.4,.64,13.31,2.31,12.71,9.25Z"/><path class="j" d="M83.07,87.72c2.72,0,4.89,1.02,6.23,1.86,.52,.33,1.17-.19,.97-.77-.79-2.27-2.74-5.82-7.2-5.82-3.66,0-6.72,2.56-7.5,5.99-.13,.58,.54,1.01,1.03,.67,1.23-.85,3.39-1.93,6.46-1.93Z"/><g><path class="d" d="M79.86,117.49c-1.36,7.83-8.92,12.98-16.7,11.37l-7.72-1.6-4.57,1.96c-3.91,1.68-8.26,2.04-12.39,1.05l-7.7-1.85c-3.52-.85-6.14-3.8-6.55-7.4l-2.34-20.25,38.34-15.64"/><path class="j" d="M79.91,117.5l-.17-.03c-.58-.1-1.11,.28-1.25,.85-.78,3.03-2.6,5.64-5.22,7.42-2.91,1.98-6.41,2.68-9.85,1.96l-8.09-1.67-4.91,2.11c-3.68,1.58-7.76,1.92-11.65,.99l-7.7-1.85c-3.02-.73-5.3-3.29-5.65-6.39l-2.23-19.36,37.51-15.3-.89-2.18-39.17,15.98,2.44,21.14c.47,4.09,3.45,7.45,7.45,8.41l7.7,1.85c1.6,.38,3.23,.57,4.87,.57,2.83,0,5.66-.57,8.26-1.69l4.23-1.81,7.36,1.52c4.07,.84,8.22,.02,11.66-2.32,3.11-2.12,5.28-5.22,6.19-8.82,.16-.63-.23-1.26-.87-1.37Z"/></g><g><path class="h" d="M22.61,97.7c-1.26,.24-2.09,1.45-1.86,2.71l1.81,9.72c.09,.47,.69,.61,.98,.23l11.5-14.99-12.44,2.32Z"/><path class="j" d="M23.1,111.76c-.13,0-.27-.02-.4-.05-.66-.16-1.17-.69-1.3-1.36l-1.81-9.72c-.17-.92,.03-1.85,.55-2.62,.53-.77,1.33-1.29,2.25-1.46l15.46-2.89-13.38,17.43c-.33,.43-.84,.68-1.37,.68Zm-.28-12.9c-.3,.06-.56,.23-.73,.48-.17,.25-.24,.56-.18,.86l1.56,8.34,8.77-11.43-9.41,1.76Z"/></g><path class="d" d="M113.27,76.19c-.13-1.14-1.04-2-3.3-1.99,2.63-1.94,2.95-3.75,2.11-5.22-.98-1.72-3.18-2.32-7.26,0-.53,.3-1.05,.67-1.55,1.08,.08-.22,.16-.44,.22-.67,.82-3.04,.06-4.36-1.23-4.71-1.28-.35-2.6,.41-3.42,3.46-.58,2.16-.1,5.07,.22,6.57-1.09,1.52-1.76,2.7-1.76,2.7,0,0,2.41,.04,5.22-.39-.37,.26-.6,.42-.6,.42,0,0,4.27,1.95,7.4,1.6,3.13-.35,4.08-1.54,3.94-2.86Z"/></g></g></g><path class="f" d="M194.49,172.58c-2.22,4.52-3.39,12.98-18.39,14.6-3.31,.36-6.83,.66-10.06,.67-9.16,.03-18.47,.25-27.47,.46-12.66,.3-25.75,.61-38.65,.4-26.04-.41-52.98-.83-79.45-4.45l.29-2.12c26.34,3.61,53.21,4.03,79.19,4.43,12.86,.2,25.93-.11,38.57-.4,9.01-.21,18.33-.43,27.51-.46,3.13-.01,6.53-.46,9.65-.63,11.55-.64,14.57-7.79,16.33-12.47l2.48-.02Z"/><path class="f" d="M198.08,83.78c-.32-7.38-.65-15.01,.07-22.24,.38-3.78,.54-7.52,.54-11.32,0-7.2-.6-14.61-1.49-22.85l-1.07-9.9-2.13,.23,1.07,9.9c1.34,12.46,2.02,22.96,.94,33.73-.73,7.38-.4,15.09-.08,22.54,.15,3.44,.3,7,.34,10.44,.32,25.85-.22,47.38-1.71,67.73-.29,3.92-.71,7.68-2.57,10.57-.29,.44-.22,1.02,.19,1.35l.13,.1c.46,.36,1.13,.24,1.45-.25,2.15-3.3,2.62-7.38,2.93-11.61,1.49-20.41,2.03-41.98,1.71-67.91-.04-3.47-.2-7.04-.35-10.5Z"/></g></g></svg>